<mxfile host="app.diagrams.net" agent="Mozilla/5.0 (Windows NT 10.0; Win64; x64) AppleWebKit/537.36 (KHTML, like Gecko) Chrome/130.0.0.0 Safari/537.36" version="25.0.1">
  <diagram id="C5RBs43oDa-KdzZeNtuy" name="Page-1">
    <mxGraphModel dx="1006" dy="606" grid="1" gridSize="10" guides="1" tooltips="1" connect="1" arrows="1" fold="1" page="1" pageScale="1" pageWidth="827" pageHeight="1169" math="0" shadow="0">
      <root>
        <mxCell id="WIyWlLk6GJQsqaUBKTNV-0" />
        <mxCell id="WIyWlLk6GJQsqaUBKTNV-1" parent="WIyWlLk6GJQsqaUBKTNV-0" />
        <mxCell id="6bBoe8QYhX-pJggfp16p-2" value="" style="edgeStyle=orthogonalEdgeStyle;rounded=0;orthogonalLoop=1;jettySize=auto;html=1;" edge="1" parent="WIyWlLk6GJQsqaUBKTNV-1" source="6bBoe8QYhX-pJggfp16p-0" target="6bBoe8QYhX-pJggfp16p-1">
          <mxGeometry relative="1" as="geometry" />
        </mxCell>
        <mxCell id="6bBoe8QYhX-pJggfp16p-0" value="Start" style="ellipse;whiteSpace=wrap;html=1;" vertex="1" parent="WIyWlLk6GJQsqaUBKTNV-1">
          <mxGeometry x="300" y="50" width="120" height="80" as="geometry" />
        </mxCell>
        <mxCell id="6bBoe8QYhX-pJggfp16p-8" value="" style="edgeStyle=orthogonalEdgeStyle;rounded=0;orthogonalLoop=1;jettySize=auto;html=1;" edge="1" parent="WIyWlLk6GJQsqaUBKTNV-1" source="6bBoe8QYhX-pJggfp16p-1" target="6bBoe8QYhX-pJggfp16p-7">
          <mxGeometry relative="1" as="geometry" />
        </mxCell>
        <mxCell id="6bBoe8QYhX-pJggfp16p-1" value="n" style="shape=parallelogram;perimeter=parallelogramPerimeter;whiteSpace=wrap;html=1;fixedSize=1;" vertex="1" parent="WIyWlLk6GJQsqaUBKTNV-1">
          <mxGeometry x="300" y="220" width="120" height="60" as="geometry" />
        </mxCell>
        <mxCell id="6bBoe8QYhX-pJggfp16p-10" value="== 0" style="edgeStyle=orthogonalEdgeStyle;rounded=0;orthogonalLoop=1;jettySize=auto;html=1;" edge="1" parent="WIyWlLk6GJQsqaUBKTNV-1" source="6bBoe8QYhX-pJggfp16p-7" target="6bBoe8QYhX-pJggfp16p-9">
          <mxGeometry relative="1" as="geometry" />
        </mxCell>
        <mxCell id="6bBoe8QYhX-pJggfp16p-14" value="" style="edgeStyle=orthogonalEdgeStyle;rounded=0;orthogonalLoop=1;jettySize=auto;html=1;" edge="1" parent="WIyWlLk6GJQsqaUBKTNV-1" source="6bBoe8QYhX-pJggfp16p-7" target="6bBoe8QYhX-pJggfp16p-13">
          <mxGeometry relative="1" as="geometry" />
        </mxCell>
        <mxCell id="6bBoe8QYhX-pJggfp16p-16" value="!== 0" style="edgeLabel;html=1;align=center;verticalAlign=middle;resizable=0;points=[];" vertex="1" connectable="0" parent="6bBoe8QYhX-pJggfp16p-14">
          <mxGeometry x="-0.5029" y="1" relative="1" as="geometry">
            <mxPoint as="offset" />
          </mxGeometry>
        </mxCell>
        <mxCell id="6bBoe8QYhX-pJggfp16p-7" value="n / 2" style="rhombus;whiteSpace=wrap;html=1;" vertex="1" parent="WIyWlLk6GJQsqaUBKTNV-1">
          <mxGeometry x="320" y="350" width="80" height="80" as="geometry" />
        </mxCell>
        <mxCell id="6bBoe8QYhX-pJggfp16p-12" value="" style="edgeStyle=orthogonalEdgeStyle;rounded=0;orthogonalLoop=1;jettySize=auto;html=1;" edge="1" parent="WIyWlLk6GJQsqaUBKTNV-1" source="6bBoe8QYhX-pJggfp16p-9" target="6bBoe8QYhX-pJggfp16p-11">
          <mxGeometry relative="1" as="geometry" />
        </mxCell>
        <mxCell id="6bBoe8QYhX-pJggfp16p-9" value="Số chẵn&amp;nbsp;" style="shape=parallelogram;perimeter=parallelogramPerimeter;whiteSpace=wrap;html=1;fixedSize=1;" vertex="1" parent="WIyWlLk6GJQsqaUBKTNV-1">
          <mxGeometry x="300" y="520" width="120" height="60" as="geometry" />
        </mxCell>
        <mxCell id="6bBoe8QYhX-pJggfp16p-11" value="End" style="ellipse;whiteSpace=wrap;html=1;" vertex="1" parent="WIyWlLk6GJQsqaUBKTNV-1">
          <mxGeometry x="300" y="620" width="120" height="80" as="geometry" />
        </mxCell>
        <mxCell id="6bBoe8QYhX-pJggfp16p-17" style="edgeStyle=orthogonalEdgeStyle;rounded=0;orthogonalLoop=1;jettySize=auto;html=1;entryX=1.017;entryY=0.367;entryDx=0;entryDy=0;entryPerimeter=0;" edge="1" parent="WIyWlLk6GJQsqaUBKTNV-1" source="6bBoe8QYhX-pJggfp16p-13" target="6bBoe8QYhX-pJggfp16p-11">
          <mxGeometry relative="1" as="geometry">
            <mxPoint x="560" y="650" as="targetPoint" />
            <Array as="points">
              <mxPoint x="560" y="649" />
            </Array>
          </mxGeometry>
        </mxCell>
        <mxCell id="6bBoe8QYhX-pJggfp16p-13" value="Không phải số chẵn" style="shape=parallelogram;perimeter=parallelogramPerimeter;whiteSpace=wrap;html=1;fixedSize=1;" vertex="1" parent="WIyWlLk6GJQsqaUBKTNV-1">
          <mxGeometry x="490" y="360" width="140" height="60" as="geometry" />
        </mxCell>
      </root>
    </mxGraphModel>
  </diagram>
</mxfile>
